<?xml version="1.0" encoding="utf-8"?>
<!-- Generator: Adobe Illustrator 23.0.6, SVG Export Plug-In . SVG Version: 6.00 Build 0)  -->
<svg version="1.1" id="レイヤー_1" xmlns="http://www.w3.org/2000/svg" xmlns:xlink="http://www.w3.org/1999/xlink" x="0px"
	 y="0px" viewBox="0 0 293.9 62.7" style="enable-background:new 0 0 293.9 62.7;" xml:space="preserve">
<style type="text/css">
	.st0{fill:#FFFFFF;}
</style>
<g>
	<path class="st0" d="M72.5,53.4c0.1,1.7-1.2,3.2-2.9,3.3c-1.7,0.1-3.2-1.2-3.3-2.9c-0.1-1.7,1.2-3.2,2.9-3.3
		C70.8,50.4,72.3,51.7,72.5,53.4z"/>
	<path class="st0" d="M34.7,2.9c0.1,1.7-1.2,3.2-2.9,3.3c-1.7,0.1-3.2-1.2-3.3-2.9c-0.1-1.7,1.2-3.2,2.9-3.3
		C33.1-0.1,34.6,1.2,34.7,2.9z"/>
	<path class="st0" d="M6.2,59.4c0.1,1.7-1.2,3.2-2.9,3.3c-1.7,0.1-3.2-1.2-3.3-2.9c-0.1-1.7,1.2-3.2,2.9-3.3
		C4.6,56.4,6.1,57.7,6.2,59.4z"/>
	<path class="st0" d="M30.5,8.2c0.1,0-24.3,48.2-24.2,48.2c0,0,26.6-18.8,26.6-18.8L30.5,8.2z"/>
	<polygon class="st0" points="33.1,7.6 35.5,37.2 65.9,50.3 	"/>
	<g>
		<polygon class="st0" points="34.4,39.4 7.8,57.7 64.2,52.1 		"/>
	</g>
</g>
<path class="st0" d="M124.9,25.3c-1.8,0-3.9,0.4-5.8,1.4c-1.9,1-2.8,2.3-3.5,3.5c-1.1,1.8-1.6,4-1.6,6.6c0,3.3,0.9,5.9,2.8,7.9
	c1.9,1.9,4.3,2.9,7.4,2.9c1.4,0,2.8-0.2,4.1-0.5c1.3-0.4,4.2-3.9,4.2-3.9c-1,0.7-2,1.2-3.1,1.6c-1,0.4-2.1,0.5-3.1,0.5
	c-2.3,0-4.2-0.8-5.7-2.3c-1.4-1.5-2.2-3.8-2.3-6.8h5.6c2.8,0,5.1-0.1,6.7-0.2c0.9-0.1,1.8-0.2,2.8-0.5l0.1-1.3c0-2.8-0.8-5-2.3-6.5
	C129.7,26.1,127.6,25.3,124.9,25.3z M130.2,34.4c-1.9,0.1-9.4,0.1-11.7,0c0-2.6,1-7.6,6.2-7.6c5.2,0,5.3,4.9,5.5,6.3V34.4z"/>
<path class="st0" d="M201,26.4l0.8-9.6c-1.8,2-4.8,3.1-4.6,3.2c0.9,1.3,1.5,6.4,1.6,6.4H201z"/>
<path class="st0" d="M164.3,45.3c-0.2-0.1-0.4-0.5-0.5-1c-0.2-1.4-0.2-3.2-0.2-5.3c0,0,0.3-13.8-0.1-14.1c-1.6,1.1-8.1,2.9-8.1,2.9
	s3.9,0.7,4.1,1.1c0.3,0.6,0.4,2.8,0.4,6.4c0,3-0.1,5.5-0.2,7.7c-0.1,1.2-0.2,2-0.4,2.2c-0.2,0.2-0.7,0.4-1.5,0.4l-2.7,0.2
	c0,0,0.4,1.2,6.5,1.2c6.1,0,7-1.3,7-1.3l-1.7,0.1C165.7,45.8,164.9,45.6,164.3,45.3z"/>
<path class="st0" d="M87.2,25.8c0,0,2.6,1.6,2.8,1.8c0.2,0.1,0.3,0.3,0.3,0.6c0,0.2-5.9,13.7-6.1,13.3c-3.1-7.5-4.7-11.1-5-11.8
	c-0.3-0.8-0.4-1.3-0.4-1.5c0-0.3,0.1-0.5,0.4-0.7c0.4-0.2,2.9-1.6,2.9-1.6c-1.9,0.1-3.6,0.1-5.2,0.1c-1.5,0-3.3,0-5.6-0.1
	c0,0,1.9,1.5,2.3,1.8c0.4,0.4,1.4,1.3,1.7,2.3c0.2,0.5,0.7,1.2,1.4,2.9c2.1,4.7,5.5,11.9,7.2,14.5c2.5-2.6,9.4-19.4,9.6-19.6
	c0.1-0.2,0.3-0.3,0.6-0.4c0.3-0.1,1.7-1.5,1.7-1.5c-1.6,0.1-3.1,0.1-4.5,0.1C90.1,25.9,88.7,25.9,87.2,25.8z"/>
<path class="st0" d="M290,44.7c-1.4-1.8-4.3-6-6.3-9c3.5-4.4,5.8-6.8,6.6-7.5c0.5-0.4,2.5-2.4,2.5-2.4c0,0-3.9,0-3.9,0
	c-2,3-4.3,6-6.2,8.6c-2.2-3.7-6.1-8.7-7.1-9.1c0.2,0-4.7,0-4.7,0s2.2,1.6,3.1,2.5c0.9,0.9,5,6.9,6.6,9.2c-1.8,2.3-3.5,4.4-5.3,6.3
	c-1.2,1.3-3.2,3.1-3.8,3.7c0,0.1,3.9-0.1,3.9,0c1.2-1.9,2.1-3.4,2.9-4.4c0.8-1.1,1.8-2.5,3.3-4.2c3,4.5,4.6,7,5,7.4
	c0.5,0.7,1.2,1.3,1.9,1.8c0,0,5.3,0,5.3,0C293.1,47.6,291,45.9,290,44.7z"/>
<path class="st0" d="M164.9,30.7c0.1,0,0,1.7,0,1.7c1.3-2.1,5.2-3.8,7.8-1.5c-0.3-3,0.3-5.5,0.3-5.5
	C170.7,26.5,165.1,29.7,164.9,30.7z"/>
<path class="st0" d="M240.5,25.3c-1.8,0-3.9,0.4-5.8,1.4c-1.9,1-2.8,2.3-3.5,3.5c-1.1,1.8-1.6,4-1.6,6.6c0,3.3,0.9,5.9,2.8,7.9
	c1.9,1.9,4.3,2.9,7.4,2.9c1.4,0,2.8-0.2,4.1-0.5c1.3-0.4,4.2-3.9,4.2-3.9c-1,0.7-2,1.2-3.1,1.6c-1,0.4-2.1,0.5-3.1,0.5
	c-2.3,0-4.2-0.8-5.6-2.3c-1.4-1.5-2.2-3.8-2.3-6.8h5.6c2.8,0,5.1-0.1,6.7-0.2c0.9-0.1,1.8-0.2,2.8-0.5l0.1-1.3c0-2.8-0.8-5-2.3-6.5
	C245.2,26.1,243.1,25.3,240.5,25.3z M245.8,34.4c-1.9,0.1-9.4,0.1-11.7,0c0-2.6,1-7.6,6.2-7.6s5.3,4.9,5.5,6.3V34.4z"/>
<path class="st0" d="M192.2,26.5c0.5,0.8,2,3.2,2,3.2c1.2-0.1,2.4-0.1,3.6-0.1v8.6l-0.1,4.4c0,1.3,0.2,2.3,0.5,2.9
	c0.3,0.6,0.9,1.2,1.7,1.6c0.8,0.4,1.7,0.6,2.8,0.6c0.4,0,1.1-0.1,1.6-0.1c2-0.6,2.8-3.3,2.8-3.3c-0.4,0.4-0.9,0.4-1.4,0.5
	c-0.5,0.1-0.8,0.1-1.2,0.1c-0.7,0-1.3-0.2-1.7-0.5c-0.5-0.4-0.8-0.9-0.9-1.5c-0.1-0.6-0.2-2.1-0.2-4.4v-8.9h0.8l4.3,0l0.9,0l0.4-2.7
	c0,0-5.2,0.5-8,0.5C197,27.1,193.3,26.9,192.2,26.5z"/>
<g>
</g>
<g>
</g>
<g>
</g>
<g>
</g>
<g>
</g>
<g>
</g>
</svg>
