<?xml version="1.0" encoding="utf-8"?>
<!-- Generator: Adobe Illustrator 23.0.6, SVG Export Plug-In . SVG Version: 6.00 Build 0)  -->
<svg version="1.1" id="レイヤー_1" xmlns="http://www.w3.org/2000/svg" xmlns:xlink="http://www.w3.org/1999/xlink" x="0px"
	 y="0px" viewBox="0 0 293.86 62.73" style="enable-background:new 0 0 293.86 62.73;" xml:space="preserve">
<style type="text/css">
	.st0{fill:url(#SVGID_1_);}
	.st1{fill:url(#SVGID_2_);}
	.st2{fill:#1F0F09;}
</style>
<g>
	<path d="M72.46,53.42c0.12,1.71-1.16,3.2-2.87,3.32c-1.71,0.13-3.2-1.16-3.32-2.87c-0.12-1.71,1.16-3.2,2.87-3.32
		C70.85,50.43,72.34,51.71,72.46,53.42z"/>
	<path d="M34.69,2.88c0.12,1.71-1.16,3.19-2.87,3.32c-1.71,0.12-3.2-1.16-3.32-2.87c-0.13-1.71,1.16-3.2,2.87-3.32
		C33.08-0.12,34.57,1.17,34.69,2.88z"/>
	<path d="M6.2,59.4c0.12,1.71-1.16,3.2-2.87,3.32c-1.71,0.12-3.2-1.16-3.32-2.87c-0.12-1.71,1.16-3.19,2.87-3.32
		C4.59,56.4,6.07,57.69,6.2,59.4z"/>
	<linearGradient id="SVGID_1_" gradientUnits="userSpaceOnUse" x1="30.1223" y1="24.2276" x2="8.2789" y2="43.2219">
		<stop  offset="0" style="stop-color:#D7000F"/>
		<stop  offset="1" style="stop-color:#F18D02"/>
	</linearGradient>
	<path class="st0" d="M30.51,8.17C30.66,8.19,6.25,56.38,6.3,56.33c0.04-0.03,26.59-18.79,26.59-18.79L30.51,8.17z"/>
	<linearGradient id="SVGID_2_" gradientUnits="userSpaceOnUse" x1="59.4074" y1="50.8391" x2="30.9177" y2="18.5507">
		<stop  offset="5.618000e-03" style="stop-color:#D45315"/>
		<stop  offset="1" style="stop-color:#FFD900"/>
	</linearGradient>
	<polygon class="st1" points="33.11,7.59 35.5,37.18 65.94,50.31 	"/>
	<g>
		<polygon points="34.36,39.44 7.78,57.75 64.18,52.05 		"/>
	</g>
</g>
<path class="st2" d="M124.91,25.29c-1.77,0-3.89,0.36-5.75,1.41c-1.86,1.03-2.83,2.31-3.52,3.53c-1.06,1.85-1.58,4.04-1.58,6.55
	c0,3.32,0.94,5.94,2.8,7.87c1.87,1.94,4.33,2.9,7.38,2.9c1.4,0,2.76-0.18,4.08-0.55c1.32-0.36,4.19-3.88,4.19-3.88
	c-1.02,0.7-2.04,1.22-3.08,1.56c-1.03,0.35-2.07,0.53-3.12,0.53c-2.33,0-4.22-0.77-5.65-2.32c-1.44-1.53-2.19-3.79-2.27-6.76h5.63
	c2.83,0,5.07-0.06,6.67-0.19c0.89-0.08,1.84-0.24,2.83-0.49l0.07-1.32c0-2.79-0.78-4.97-2.34-6.52
	C129.68,26.07,127.56,25.29,124.91,25.29z M130.19,34.41c-1.85,0.1-9.41,0.11-11.73,0.02c0.03-2.59,1.04-7.58,6.21-7.58
	c5.17,0,5.29,4.85,5.52,6.32V34.41z"/>
<path class="st2" d="M201.02,26.42l0.85-9.6c-1.8,1.99-4.77,3.14-4.61,3.18c0.94,1.34,1.54,6.42,1.63,6.42H201.02z"/>
<path class="st2" d="M164.32,45.3c-0.23-0.14-0.39-0.48-0.45-1c-0.17-1.43-0.24-3.17-0.24-5.26c0,0,0.32-13.81-0.13-14.06
	c-1.59,1.07-8.14,2.87-8.14,2.87s3.86,0.66,4.05,1.07c0.29,0.63,0.44,2.75,0.44,6.37c0,2.97-0.05,5.53-0.16,7.69
	c-0.06,1.22-0.19,1.96-0.4,2.18c-0.2,0.22-0.69,0.37-1.46,0.42l-2.67,0.17c0,0,0.41,1.18,6.48,1.18c6.07,0,6.98-1.26,6.98-1.26
	l-1.74,0.08C165.74,45.76,164.9,45.6,164.32,45.3z"/>
<path class="st2" d="M87.19,25.77c0,0,2.57,1.62,2.77,1.76c0.19,0.13,0.29,0.35,0.29,0.63c0,0.17-5.94,13.66-6.1,13.27
	c-3.06-7.55-4.71-11.09-4.97-11.83c-0.27-0.78-0.41-1.29-0.41-1.54c0-0.31,0.13-0.53,0.38-0.69c0.38-0.19,2.93-1.59,2.93-1.59
	c-1.89,0.1-3.63,0.13-5.22,0.13c-1.49,0-3.34-0.04-5.56-0.13c0,0,1.92,1.48,2.34,1.83c0.41,0.35,1.41,1.28,1.74,2.26
	c0.17,0.48,0.65,1.23,1.42,2.95c2.05,4.65,5.46,11.86,7.19,14.48c2.46-2.56,9.43-19.45,9.58-19.61c0.15-0.17,0.34-0.3,0.58-0.41
	c0.33-0.14,1.72-1.51,1.72-1.51c-1.61,0.1-3.12,0.13-4.54,0.13C90.12,25.9,88.73,25.86,87.19,25.77z"/>
<path class="st2" d="M290.04,44.7c-1.37-1.8-4.29-6.03-6.32-9.02c3.51-4.37,5.8-6.79,6.61-7.5c0.49-0.43,2.52-2.41,2.52-2.41
	c0,0.03-3.92-0.03-3.87,0c-2.03,2.98-4.3,6.04-6.25,8.64c-2.22-3.69-6.11-8.69-7.09-9.12c0.21,0-4.69,0-4.69,0s2.18,1.64,3.05,2.51
	c0.87,0.87,5.02,6.87,6.59,9.25c-1.77,2.27-3.54,4.36-5.28,6.31c-1.2,1.34-3.18,3.11-3.77,3.72c0.02,0.08,3.88-0.06,3.92,0
	c1.18-1.89,2.15-3.37,2.91-4.43c0.76-1.07,1.85-2.47,3.26-4.19c2.99,4.52,4.65,6.99,4.98,7.4c0.52,0.67,1.17,1.28,1.94,1.84
	c-0.04-0.04,5.31-0.04,5.31-0.04C293.07,47.64,290.98,45.92,290.04,44.7z"/>
<path class="st2" d="M164.87,30.69c0.05,0,0,1.7,0,1.7c1.29-2.15,5.17-3.76,7.77-1.55c-0.31-2.97,0.3-5.51,0.31-5.5
	C170.75,26.51,165.15,29.73,164.87,30.69z"/>
<path class="st2" d="M240.48,25.29c-1.76,0-3.89,0.36-5.75,1.41c-1.86,1.03-2.82,2.31-3.51,3.53c-1.06,1.85-1.59,4.04-1.59,6.55
	c0,3.32,0.94,5.94,2.8,7.87c1.87,1.94,4.33,2.9,7.38,2.9c1.39,0,2.76-0.18,4.08-0.55c1.32-0.36,4.19-3.88,4.19-3.88
	c-1.02,0.7-2.04,1.22-3.08,1.56c-1.03,0.35-2.07,0.53-3.12,0.53c-2.33,0-4.22-0.77-5.65-2.32c-1.44-1.53-2.19-3.79-2.27-6.76h5.62
	c2.84,0,5.07-0.06,6.67-0.19c0.9-0.08,1.84-0.24,2.83-0.49l0.06-1.32c0-2.79-0.77-4.97-2.33-6.52
	C245.25,26.07,243.14,25.29,240.48,25.29z M245.76,34.41c-1.86,0.1-9.41,0.11-11.73,0.02c0.03-2.59,1.05-7.58,6.21-7.58
	s5.29,4.85,5.52,6.32V34.41z"/>
<path class="st2" d="M192.18,26.46c0.49,0.81,2,3.21,2,3.21c1.23-0.09,2.42-0.13,3.58-0.13v8.59l-0.08,4.36
	c0,1.3,0.17,2.27,0.52,2.91c0.34,0.64,0.9,1.16,1.65,1.55c0.77,0.4,1.69,0.6,2.8,0.6c0.42,0,1.08-0.06,1.61-0.13
	c1.98-0.61,2.81-3.27,2.81-3.27c-0.4,0.35-0.91,0.39-1.44,0.46c-0.53,0.08-0.82,0.13-1.24,0.13c-0.7,0-1.28-0.18-1.73-0.54
	c-0.46-0.37-0.75-0.88-0.9-1.53c-0.15-0.64-0.23-2.13-0.23-4.44v-8.89h0.78l4.28-0.02l0.91,0.02l0.38-2.72c0,0-5.16,0.48-8.01,0.48
	C197.01,27.1,193.25,26.87,192.18,26.46z"/>
</svg>
